# xmcd
#
# Track frame offsets:
#  150
#  9115
#  18617
#  35372
#  48677
#  60960
#  69025
#  79360
#  91175
#  103507
#  115727
#  127612
#
# Disc length: 1825 seconds
#
# Revision: 0
# Processed by: cddbd v1.5.2PL0 Copyright (c) Steve Scherf et al.
# Submitted via: Collectorz.com_Music_Collector 6.11
#
DISCID=82071f0c
DTITLE=Various Artist - Country Christmas
DYEAR=1986
DGENRE=Christmas - Country
TTITLE0=Slim Dusty - Santa's Gonna Come In A Mail Coach
TTITLE1=Cristy Lane - Jolly Old Saint Nicholas
TTITLE2=Kenny Rogers - Christmas Every Day
TTITLE3=Louvin Brothers - It's Christmas Time
TTITLE4=Anne Murray - Silver Bells
TTITLE5=Slim Whitman - There's A Song In The Air
TTITLE6=Slim Dusty - Santa Looked A Lot Like daddy
TTITLE7=Cristy Lane - Memories Of An Old Christmas Card
TTITLE8=Kenny Rogers - Christmas Is My Favourite Time Of year
TTITLE9=Hank Thompson - White Christmas
TTITLE10=Anne Murray - Christmas Wishes
TTITLE11=Slim Whitman - Christmas
EXTD=
EXTT0=
EXTT1=
EXTT2=
EXTT3=
EXTT4=
EXTT5=
EXTT6=
EXTT7=
EXTT8=
EXTT9=
EXTT10=
EXTT11=
PLAYORDER=
